<mxfile host="app.diagrams.net" modified="2022-06-23T06:03:06.354Z" agent="5.0 (Windows NT 10.0; Win64; x64) AppleWebKit/537.36 (KHTML, like Gecko) Chrome/102.0.0.0 Safari/537.36" etag="LcBIe60F7IZ-QBUf8HsW" version="20.0.3" type="github">
  <diagram id="-yz2T1mOu4Fy1w3xpy8L" name="Page-1">
    <mxGraphModel dx="1422" dy="730" grid="1" gridSize="10" guides="1" tooltips="1" connect="1" arrows="1" fold="1" page="1" pageScale="1" pageWidth="827" pageHeight="1169" math="0" shadow="0">
      <root>
        <mxCell id="0" />
        <mxCell id="1" parent="0" />
        <mxCell id="-uH1XeUTPufhPMCJsygV-8" value="com.huayun" style="shape=folder;fontStyle=1;spacingTop=20;tabWidth=220;tabHeight=20;tabPosition=left;html=1;labelPosition=center;verticalLabelPosition=middle;align=center;verticalAlign=top;textDirection=rtl;fillColor=#fff2cc;strokeColor=#d6b656;" vertex="1" parent="1">
          <mxGeometry x="100" y="210" width="730" height="370" as="geometry" />
        </mxCell>
        <mxCell id="-uH1XeUTPufhPMCJsygV-9" value="controller" style="shape=folder;fontStyle=1;spacingTop=10;tabWidth=40;tabHeight=14;tabPosition=left;html=1;verticalAlign=top;fillColor=#ffe6cc;strokeColor=#d79b00;" vertex="1" parent="1">
          <mxGeometry x="130" y="284" width="230" height="140" as="geometry" />
        </mxCell>
        <mxCell id="-uH1XeUTPufhPMCJsygV-13" value="RequestVO" style="shape=folder;fontStyle=1;spacingTop=10;tabWidth=40;tabHeight=14;tabPosition=left;html=1;verticalAlign=middle;" vertex="1" parent="1">
          <mxGeometry x="140" y="307" width="90" height="50" as="geometry" />
        </mxCell>
        <mxCell id="-uH1XeUTPufhPMCJsygV-14" value="resposeVO" style="shape=folder;fontStyle=1;spacingTop=10;tabWidth=40;tabHeight=14;tabPosition=left;html=1;verticalAlign=middle;" vertex="1" parent="1">
          <mxGeometry x="260" y="335" width="90" height="50" as="geometry" />
        </mxCell>
        <mxCell id="-uH1XeUTPufhPMCJsygV-15" value="service" style="shape=folder;fontStyle=1;spacingTop=10;tabWidth=40;tabHeight=14;tabPosition=left;html=1;verticalAlign=top;fillColor=#ffe6cc;strokeColor=#d79b00;" vertex="1" parent="1">
          <mxGeometry x="400" y="304" width="150" height="100" as="geometry" />
        </mxCell>
        <mxCell id="-uH1XeUTPufhPMCJsygV-16" value="impl" style="shape=folder;fontStyle=1;spacingTop=10;tabWidth=40;tabHeight=14;tabPosition=left;html=1;verticalAlign=middle;" vertex="1" parent="1">
          <mxGeometry x="430" y="341" width="90" height="50" as="geometry" />
        </mxCell>
        <mxCell id="-uH1XeUTPufhPMCJsygV-22" value="dao" style="shape=folder;fontStyle=1;spacingTop=10;tabWidth=40;tabHeight=14;tabPosition=left;html=1;verticalAlign=top;fillColor=#ffe6cc;strokeColor=#d79b00;" vertex="1" parent="1">
          <mxGeometry x="620" y="307" width="150" height="100" as="geometry" />
        </mxCell>
        <mxCell id="-uH1XeUTPufhPMCJsygV-23" value="impl" style="shape=folder;fontStyle=1;spacingTop=10;tabWidth=40;tabHeight=14;tabPosition=left;html=1;verticalAlign=middle;" vertex="1" parent="1">
          <mxGeometry x="649" y="343" width="90" height="50" as="geometry" />
        </mxCell>
        <mxCell id="-uH1XeUTPufhPMCJsygV-24" value="Entity" style="shape=folder;fontStyle=1;spacingTop=10;tabWidth=40;tabHeight=14;tabPosition=left;html=1;verticalAlign=middle;fillColor=#ffe6cc;strokeColor=#d79b00;" vertex="1" parent="1">
          <mxGeometry x="165" y="438" width="150" height="100" as="geometry" />
        </mxCell>
        <mxCell id="-uH1XeUTPufhPMCJsygV-25" value="utils" style="shape=folder;fontStyle=1;spacingTop=10;tabWidth=40;tabHeight=14;tabPosition=left;html=1;verticalAlign=middle;fillColor=#ffe6cc;strokeColor=#d79b00;" vertex="1" parent="1">
          <mxGeometry x="400" y="453" width="150" height="100" as="geometry" />
        </mxCell>
        <mxCell id="-uH1XeUTPufhPMCJsygV-26" value="exception" style="shape=folder;fontStyle=1;spacingTop=10;tabWidth=40;tabHeight=14;tabPosition=left;html=1;verticalAlign=middle;fillColor=#ffe6cc;strokeColor=#d79b00;" vertex="1" parent="1">
          <mxGeometry x="620" y="452" width="150" height="100" as="geometry" />
        </mxCell>
      </root>
    </mxGraphModel>
  </diagram>
</mxfile>
